<svg xmlns="http://www.w3.org/2000/svg" width="20.165" height="22" viewBox="0 0 20.165 22">
  <path id="play" d="M21.828,10.334,10.021,3.562A4.18,4.18,0,0,0,3.75,7.229V20.821a4.177,4.177,0,0,0,6.271,3.618l11.808-6.772a4.18,4.18,0,0,0,0-7.236Zm-1.222,5.122L8.8,22.325a1.76,1.76,0,0,1-1.736,0,1.736,1.736,0,0,1-.868-1.5V7.18a1.736,1.736,0,0,1,.868-1.5,1.846,1.846,0,0,1,.868-.232,1.882,1.882,0,0,1,.868.232L20.606,12.5a1.736,1.736,0,0,1,0,3.007Z" transform="translate(-3.75 -3.002)" fill="#6563ff"/>
</svg>
