<svg xmlns="http://www.w3.org/2000/svg" width="21.202" height="23.558" viewBox="0 0 21.202 23.558">
  <path id="autoAddPoint" d="M23.024,20.846H21.846V19.668a1.178,1.178,0,1,0-2.356,0v1.178H18.312a1.178,1.178,0,1,0,0,2.356H19.49V24.38a1.178,1.178,0,0,0,2.356,0V23.2h1.178a1.178,1.178,0,0,0,0-2.356ZM14.779,23.2H6.534a1.178,1.178,0,0,1-1.178-1.178V5.534A1.178,1.178,0,0,1,6.534,4.356h5.889V7.889a3.534,3.534,0,0,0,3.534,3.534H19.49v3.534a1.178,1.178,0,1,0,2.356,0V10.174a1.543,1.543,0,0,0-.071-.318V9.75a1.26,1.26,0,0,0-.224-.33h0L14.484,2.353h0a1.26,1.26,0,0,0-.33-.224.342.342,0,0,0-.118,0A1.3,1.3,0,0,0,13.672,2H6.534A3.534,3.534,0,0,0,3,5.534v16.49a3.534,3.534,0,0,0,3.534,3.534h8.245a1.178,1.178,0,0,0,0-2.356Zm0-17.185,3.051,3.051H15.957a1.178,1.178,0,0,1-1.178-1.178ZM8.889,9.067a1.178,1.178,0,0,0,0,2.356h1.178a1.178,1.178,0,0,0,0-2.356Zm5.889,9.423H8.889a1.178,1.178,0,0,0,0,2.356h5.889a1.178,1.178,0,0,0,0-2.356Zm1.178-4.712H8.889a1.178,1.178,0,1,0,0,2.356h7.067a1.178,1.178,0,1,0,0-2.356Z" transform="translate(-3 -2)" fill="#ffda74"/>
</svg>
